<svg width="894" height="174" viewBox="0 0 894 174" fill="none" xmlns="http://www.w3.org/2000/svg">
<path d="M111.101 92.325C111.101 114.431 103.544 132.975 88.431 147.915C73.3176 162.898 54.9036 170.368 33.1889 170.368H0.877441V138.317H33.1889C46.044 138.317 56.8578 133.93 65.6305 125.114C74.4033 116.341 78.7898 105.397 78.7898 92.3685L78.5292 3.07766H111.101V92.325Z" fill="#3A7861"/>
<path d="M134.335 4.59831H166.646L166.125 36.1281H134.074L134.335 4.59831ZM134.335 48.8963H166.646V170.325H134.074L134.335 48.8963Z" fill="#3A7861"/>
<path d="M223.024 37.6867H278.527V69.9982H222.503V114.73C222.503 121.375 224.588 126.934 228.8 131.451C233.013 135.968 238.268 138.269 244.565 138.269H278.223V170.32H244.869C229.582 170.32 216.684 164.892 206.174 153.991C195.664 143.09 190.409 129.844 190.409 114.166V3.5078H222.46L222.981 37.6432L223.024 37.6867Z" fill="#3A7861"/>
<path d="M405.519 151.3C392.664 164.025 376.943 170.366 358.355 170.366C339.767 170.366 323.829 163.982 311.06 151.17C298.292 138.358 291.908 122.68 291.908 104.049C291.908 85.418 298.335 69.6965 311.19 56.798C324.046 43.8994 339.767 37.4718 358.355 37.4718C376.943 37.4718 392.664 43.8994 405.519 56.798C418.374 69.6965 424.802 85.418 424.802 104.049C424.802 122.68 418.374 138.619 405.519 151.3ZM382.198 79.3378C375.857 72.9537 367.909 69.7833 358.355 69.7833C348.8 69.7833 340.723 73.0839 334.121 79.7286C327.52 86.3732 324.219 94.4513 324.219 104.049C324.219 113.647 327.52 121.768 334.121 128.37C340.723 135.014 348.8 138.315 358.355 138.315C367.909 138.315 376.204 135.058 382.719 128.5C389.233 121.942 392.49 113.821 392.49 104.049C392.49 94.7987 388.538 85.722 382.198 79.3378Z" fill="#3A7861"/>
<path d="M541.066 156.41C542.149 156.41 543 156.72 543.619 157.339C544.237 157.958 544.547 158.809 544.547 159.892V166.623C544.547 167.706 544.237 168.557 543.619 169.176C543 169.794 542.149 170.104 541.066 170.104H467.028C465.945 170.104 465.094 169.794 464.475 169.176C463.857 168.557 463.547 167.706 463.547 166.623V11.1213C463.547 10.0383 463.857 9.18726 464.475 8.56834C465.094 7.94943 465.945 7.63998 467.028 7.63998H474.687C475.771 7.63998 476.622 7.94943 477.24 8.56834C477.859 9.18726 478.169 10.0383 478.169 11.1213V156.41H541.066Z" fill="black"/>
<path d="M663.991 56.3792C665.074 56.3792 665.925 56.6886 666.544 57.3075C667.162 57.9264 667.472 58.7774 667.472 59.8605V166.623C667.472 167.706 667.162 168.557 666.544 169.176C665.925 169.794 665.074 170.104 663.991 170.104H657.724C655.713 170.104 654.552 168.943 654.243 166.623L653.082 151.537C648.595 158.19 642.793 163.451 635.675 167.319C628.558 171.032 620.512 172.889 611.538 172.889C600.862 172.889 591.269 170.259 582.759 164.998C574.249 159.737 567.595 152.62 562.799 143.645C558.002 134.517 555.604 124.459 555.604 113.474C555.604 102.488 558.002 92.508 562.799 83.5338C567.595 74.4049 574.249 67.2101 582.759 61.9493C591.269 56.6886 600.862 54.0582 611.538 54.0582C620.667 54.0582 628.79 55.9923 635.907 59.8605C643.025 63.574 648.827 68.8347 653.314 75.6427L654.243 59.8605C654.552 57.5396 655.713 56.3792 657.724 56.3792H663.991ZM612.466 160.124C622.988 160.124 632.117 156.643 639.853 149.68C647.589 142.717 652.463 133.898 654.475 123.221L654.939 113.474L654.475 103.494C652.463 92.8175 647.589 83.998 639.853 77.0353C632.117 70.0725 622.988 66.5912 612.466 66.5912C604.266 66.5912 596.839 68.6026 590.186 72.6255C583.532 76.6485 578.349 82.2186 574.635 89.3361C570.922 96.4536 569.065 104.422 569.065 113.242C569.065 122.061 570.922 130.107 574.635 137.379C578.349 144.496 583.532 150.067 590.186 154.09C596.839 158.112 604.266 160.124 612.466 160.124Z" fill="black"/>
<path d="M745.295 54.0582C755.971 54.0582 765.564 56.6886 774.074 61.9493C782.584 67.2101 789.238 74.4049 794.034 83.5338C798.831 92.508 801.229 102.488 801.229 113.474C801.229 124.459 798.831 134.517 794.034 143.645C789.238 152.62 782.584 159.737 774.074 164.998C765.564 170.259 755.971 172.889 745.295 172.889C736.321 172.889 728.275 171.032 721.158 167.319C714.04 163.451 708.238 158.19 703.751 151.537L702.59 166.623C702.281 168.943 701.12 170.104 699.109 170.104H692.842C691.759 170.104 690.908 169.794 690.289 169.176C689.67 168.557 689.361 167.706 689.361 166.623V4.15861C689.361 3.07551 689.67 2.22452 690.289 1.60561C690.908 0.986702 691.759 0.677246 692.842 0.677246H699.805C700.888 0.677246 701.739 0.986702 702.358 1.60561C702.977 2.22452 703.287 3.07551 703.287 4.15861V72.6255L703.519 75.6427C708.006 68.8347 713.808 63.574 720.925 59.8605C728.043 55.9923 736.166 54.0582 745.295 54.0582ZM744.367 160.124C752.567 160.124 759.994 158.112 766.647 154.09C773.301 150.067 778.484 144.496 782.198 137.379C785.911 130.107 787.768 122.061 787.768 113.242C787.768 104.422 785.911 96.4536 782.198 89.3361C778.484 82.2186 773.301 76.6485 766.647 72.6255C759.994 68.6026 752.567 66.5912 744.367 66.5912C733.845 66.5912 724.716 70.0725 716.98 77.0353C709.243 83.998 704.37 92.8175 702.358 103.494L701.894 113.474L702.358 123.221C704.37 133.898 709.243 142.717 716.98 149.68C724.716 156.643 733.845 160.124 744.367 160.124Z" fill="black"/>
<path d="M828.743 83.998C828.743 89.5682 830.986 93.9006 835.473 96.9951C840.115 100.09 847.155 103.339 856.594 106.743C864.64 109.683 871.061 112.391 875.857 114.866C880.654 117.342 884.754 120.823 888.158 125.31C891.562 129.643 893.264 135.213 893.264 142.021C893.264 148.055 891.485 153.471 887.926 158.267C884.367 162.909 879.648 166.545 873.768 169.176C867.889 171.806 861.7 173.121 855.201 173.121C846.536 173.121 838.491 171.264 831.064 167.551C823.637 163.837 817.68 159.35 813.193 154.09C812.419 153.006 812.032 152.233 812.032 151.769C812.032 151.304 812.342 150.608 812.961 149.68L817.138 145.038C817.912 144.11 818.531 143.645 818.995 143.645C819.614 143.645 820.542 144.264 821.78 145.502C825.184 149.216 829.826 152.697 835.705 155.946C841.585 159.041 848.006 160.588 854.969 160.588C862.551 160.588 868.585 158.963 873.072 155.714C877.559 152.31 879.803 147.746 879.803 142.021C879.803 137.688 878.488 134.052 875.857 131.113C873.227 128.018 869.978 125.542 866.109 123.686C862.241 121.829 857.058 119.663 850.559 117.187C842.978 114.402 836.789 111.849 831.992 109.528C827.35 107.052 823.405 103.803 820.155 99.7802C816.906 95.6026 815.281 90.3418 815.281 83.998C815.281 78.2731 816.829 73.1671 819.923 68.68C823.173 64.0382 827.505 60.4021 832.92 57.7717C838.491 55.1413 844.602 53.8261 851.256 53.8261C857.29 53.8261 863.556 55.3734 870.055 58.468C876.708 61.4078 882.356 65.5854 886.998 71.0009C887.617 71.6198 887.926 72.3161 887.926 73.0897C887.926 73.8634 887.539 74.7917 886.765 75.8748L884.212 79.1241C883.594 80.0525 882.82 80.5166 881.892 80.5166C881.118 80.5166 880.19 79.9751 879.107 78.892C874.31 74.4049 869.745 71.1556 865.413 69.1442C861.081 67.1327 856.129 66.127 850.559 66.127C845.144 66.127 840.115 67.5969 835.473 70.5367C830.986 73.3218 828.743 77.8089 828.743 83.998Z" fill="black"/>
</svg>
