<svg xmlns="http://www.w3.org/2000/svg" xmlns:xlink="http://www.w3.org/1999/xlink" xmlns:lucid="lucid" width="1059" height="1270.33"><g transform="translate(-321.1666665516798 -194.49999998173485)" lucid:page-tab-id="0_0"><path d="M334.67 202a6 6 0 0 1 6-6H670a6 6 0 0 1 6 6v112a6 6 0 0 1-6 6H340.67a6 6 0 0 1-6-6z" stroke="#3a414a" stroke-width="3" fill="#fff"/><use xlink:href="#a" transform="matrix(1,0,0,1,351.7333333333333,202.2) translate(24.830555555555577 62.8)"/><use xlink:href="#b" transform="matrix(1,0,0,1,351.7333333333333,202.2) translate(65.20277777777778 62.8)"/><use xlink:href="#c" transform="matrix(1,0,0,1,351.7333333333333,202.2) translate(79.64722222222224 62.8)"/><use xlink:href="#d" transform="matrix(1,0,0,1,351.7333333333333,202.2) translate(141.6861111111111 62.8)"/><use xlink:href="#e" transform="matrix(1,0,0,1,351.7333333333333,202.2) translate(170.575 62.8)"/><use xlink:href="#f" transform="matrix(1,0,0,1,351.7333333333333,202.2) translate(226.8361111111111 62.8)"/><path d="M713.68 259.48H679v-2.96h34.68zm103.04 0h-43.15v-2.96h43.15z" stroke="#3a414a" stroke-width=".05" fill="#3a414a"/><path d="M679.04 259.48h-1.54v-2.96h1.54z" fill="#3a414a"/><path stroke="#3a414a" stroke-width=".05" fill="#3a414a"/><path d="M824.9 258l-12.92 7.64v-15.28z" fill="#3a414a"/><path d="M827.78 258l-17.28 10.22v-20.44zm-14.33 5.05L822 258l-8.55-5.05z" stroke="#3a414a" stroke-width=".05" fill="#3a414a"/><use xlink:href="#g" transform="matrix(1,0,0,1,713.6841453049003,234.00000000000006) translate(0 32)"/><path d="M829.33 202a6 6 0 0 1 6-6H1158a6 6 0 0 1 6 6v112a6 6 0 0 1-6 6H835.33a6 6 0 0 1-6-6z" stroke="#3a414a" stroke-width="3" fill="#fff"/><use xlink:href="#h" transform="matrix(1,0,0,1,846.0666666666667,202.2) translate(33.38611111111112 62.8)"/><use xlink:href="#i" transform="matrix(1,0,0,1,846.0666666666667,202.2) translate(86.75833333333333 62.8)"/><use xlink:href="#j" transform="matrix(1,0,0,1,846.0666666666667,202.2) translate(182.01944444444445 62.8)"/><path d="M506.8 412.72h-2.94v-16.05h2.95zm0-64.05h-2.94V323h2.95z" stroke="#3a414a" stroke-width=".05" fill="#3a414a"/><path d="M506.8 323.04h-2.94v-1.54h2.95z" fill="#3a414a"/><path stroke="#3a414a" stroke-width=".05" fill="#3a414a"/><path d="M505.33 420.9l-7.63-12.92h15.27z" fill="#3a414a"/><path d="M505.33 423.78L495.1 406.5h20.45zm-5.05-14.33l5.05 8.54 5.05-8.55z" stroke="#3a414a" stroke-width=".05" fill="#3a414a"/><use xlink:href="#k" transform="matrix(1,0,0,1,465.3333332605543,348.6674341597417) translate(0 32)"/><path d="M322.67 431.33a6 6 0 0 1 6-6H682a6 6 0 0 1 6 6V570a6 6 0 0 1-6 6H328.67a6 6 0 0 1-6-6z" stroke="#3a414a" stroke-width="3" fill="#fff"/><use xlink:href="#a" transform="matrix(1,0,0,1,340.93333326084803,432.8666666666667) translate(10.125000000000028 71.8)"/><use xlink:href="#b" transform="matrix(1,0,0,1,340.93333326084803,432.8666666666667) translate(50.49722222222224 71.8)"/><use xlink:href="#c" transform="matrix(1,0,0,1,340.93333326084803,432.8666666666667) translate(64.94166666666669 71.8)"/><use xlink:href="#l" transform="matrix(1,0,0,1,340.93333326084803,432.8666666666667) translate(126.98055555555555 71.8)"/><use xlink:href="#m" transform="matrix(1,0,0,1,340.93333326084803,432.8666666666667) translate(190.46388888888887 71.8)"/><path d="M506.8 668.72h-2.94v-22.76h2.95zm0-70.76h-2.94V579h2.95z" stroke="#3a414a" stroke-width=".05" fill="#3a414a"/><path d="M506.8 579.04h-2.94v-1.54h2.95z" fill="#3a414a"/><path stroke="#3a414a" stroke-width=".05" fill="#3a414a"/><path d="M505.33 676.9l-7.63-12.92h15.27z" fill="#3a414a"/><path d="M505.33 679.78L495.1 662.5h20.45zm-5.05-14.33l5.05 8.54 5.05-8.55z" stroke="#3a414a" stroke-width=".05" fill="#3a414a"/><use xlink:href="#k" transform="matrix(1,0,0,1,465.33333324625573,597.9600092159039) translate(0 32)"/><path d="M322.67 687.33a6 6 0 0 1 6-6H682a6 6 0 0 1 6 6V826a6 6 0 0 1-6 6H328.67a6 6 0 0 1-6-6z" stroke="#3a414a" stroke-width="3" fill="#fff"/><use xlink:href="#a" transform="matrix(1,0,0,1,340.9333333333333,688.8666666666666) translate(5.105555555555583 71.8)"/><use xlink:href="#b" transform="matrix(1,0,0,1,340.9333333333333,688.8666666666666) translate(45.477777777777796 71.8)"/><use xlink:href="#c" transform="matrix(1,0,0,1,340.9333333333333,688.8666666666666) translate(59.92222222222224 71.8)"/><use xlink:href="#n" transform="matrix(1,0,0,1,340.9333333333333,688.8666666666666) translate(121.96111111111111 71.8)"/><use xlink:href="#m" transform="matrix(1,0,0,1,340.9333333333333,688.8666666666666) translate(195.48333333333332 71.8)"/><path d="M506.8 906.72h-2.94v-12.05h2.95zm0-60.05h-2.94V835h2.95z" stroke="#3a414a" stroke-width=".05" fill="#3a414a"/><path d="M506.8 835.04h-2.94v-1.54h2.95z" fill="#3a414a"/><path stroke="#3a414a" stroke-width=".05" fill="#3a414a"/><path d="M505.33 914.9l-7.63-12.92h15.27z" fill="#3a414a"/><path d="M505.33 917.78L495.1 900.5h20.45zm-5.05-14.33l5.05 8.54 5.05-8.55z" stroke="#3a414a" stroke-width=".05" fill="#3a414a"/><use xlink:href="#k" transform="matrix(1,0,0,1,465.3333332558142,846.666666667805) translate(0 32)"/><path d="M322.67 925.33a6 6 0 0 1 6-6H682a6 6 0 0 1 6 6V1064a6 6 0 0 1-6 6H328.67a6 6 0 0 1-6-6z" stroke="#3a414a" stroke-width="3" fill="#fff"/><use xlink:href="#a" transform="matrix(1,0,0,1,340.93333326084803,926.8666666666667) translate(44.68333333333334 42.05)"/><use xlink:href="#b" transform="matrix(1,0,0,1,340.93333326084803,926.8666666666667) translate(85.05555555555554 42.05)"/><use xlink:href="#o" transform="matrix(1,0,0,1,340.93333326084803,926.8666666666667) translate(99.5 42.05)"/><use xlink:href="#d" transform="matrix(1,0,0,1,340.93333326084803,926.8666666666667) translate(164.5 42.05)"/><use xlink:href="#p" transform="matrix(1,0,0,1,340.93333326084803,926.8666666666667) translate(193.38888888888889 42.05)"/><use xlink:href="#q" transform="matrix(1,0,0,1,340.93333326084803,926.8666666666667) translate(52.77222222222224 73.25)"/><use xlink:href="#r" transform="matrix(1,0,0,1,340.93333326084803,926.8666666666667) translate(149.26111111111112 73.25)"/><use xlink:href="#s" transform="matrix(1,0,0,1,340.93333326084803,926.8666666666667) translate(2.2527777777778226 104.45)"/><use xlink:href="#t" transform="matrix(1,0,0,1,340.93333326084803,926.8666666666667) translate(146.48055555555555 104.45)"/><use xlink:href="#u" transform="matrix(1,0,0,1,340.93333326084803,926.8666666666667) translate(197.0361111111111 104.45)"/><path d="M585.32 1136.2l3.86 2.7 3.07 2.4 2.5 2.18 2.12 2 1.8 1.9 1.54 1.8 1.35 1.7 1.18 1.68 1.03 1.64.9 1.6.8 1.6.7 1.58.62 1.58.2.56-2.8.93-.17-.5-.55-1.44-.65-1.44-.73-1.47-.84-1.5-.95-1.5-1.1-1.55-1.25-1.6-1.45-1.7-1.7-1.78-2-1.9-2.4-2.08-2.95-2.32-3.75-2.64-.15-.1v-3.48zm-78.47-62.97l.12 1.65.2 1.58.26 1.55.34 1.5.4 1.5.5 1.44.55 1.45.64 1.44.74 1.47.83 1.5.96 1.5 1.08 1.55.13.17H510l-.06-.1-1.04-1.62-.9-1.6-.8-1.6-.7-1.58-.62-1.58-.52-1.6-.45-1.6-.36-1.66-.3-1.68-.2-1.74-.14-1.8v-.32l2.94-.08z" stroke="#3a414a" stroke-width=".05" fill="#3a414a"/><path d="M506.85 1073l-2.95.08-.04-1.58h2.95z" fill="#3a414a"/><path stroke="#3a414a" stroke-width=".05" fill="#3a414a"/><path d="M606.86 1169.6l-9.6-11.53 15.08-2.44z" fill="#3a414a"/><path d="M607.33 1172.45l-12.85-15.43 20.18-3.26zm-7.28-13.34l6.35 7.63 3.62-9.23z" stroke="#3a414a" stroke-width=".05" fill="#3a414a"/><use xlink:href="#k" transform="matrix(1,0,0,1,503.53296070293595,1091.5184624756844) translate(0 32)"/><path d="M322.67 1180a6 6 0 0 1 6-6H886a6 6 0 0 1 6 6v277.33a6 6 0 0 1-6 6H328.67a6 6 0 0 1-6-6z" stroke="#3a414a" stroke-width="3" fill="#fff"/><use xlink:href="#v" transform="matrix(1,0,0,1,351.13333326447224,1188.466666666667) translate(-16.123456790123555 62.05555555555556)"/><use xlink:href="#w" transform="matrix(1,0,0,1,351.13333326447224,1188.466666666667) translate(192.60493827160494 91.3888888888889)"/><use xlink:href="#x" transform="matrix(1,0,0,1,351.13333326447224,1188.466666666667) translate(242.71604938271605 91.3888888888889)"/><use xlink:href="#y" transform="matrix(1,0,0,1,351.13333326447224,1188.466666666667) translate(287.462962962963 91.3888888888889)"/><use xlink:href="#z" transform="matrix(1,0,0,1,351.13333326447224,1188.466666666667) translate(175.0185185185185 120.72222222222223)"/><use xlink:href="#A" transform="matrix(1,0,0,1,351.13333326447224,1188.466666666667) translate(236.12962962962962 120.72222222222223)"/><use xlink:href="#B" transform="matrix(1,0,0,1,351.13333326447224,1188.466666666667) translate(289.0925925925926 120.72222222222223)"/><use xlink:href="#C" transform="matrix(1,0,0,1,351.13333326447224,1188.466666666667) translate(141.84876543209873 150.05555555555554)"/><use xlink:href="#D" transform="matrix(1,0,0,1,351.13333326447224,1188.466666666667) translate(201.53395061728392 150.05555555555554)"/><use xlink:href="#B" transform="matrix(1,0,0,1,351.13333326447224,1188.466666666667) translate(322.26234567901236 150.05555555555554)"/><use xlink:href="#E" transform="matrix(1,0,0,1,351.13333326447224,1188.466666666667) translate(132.3765432098765 179.3888888888889)"/><use xlink:href="#D" transform="matrix(1,0,0,1,351.13333326447224,1188.466666666667) translate(211.00617283950615 179.3888888888889)"/><use xlink:href="#B" transform="matrix(1,0,0,1,351.13333326447224,1188.466666666667) translate(331.7345679012346 179.3888888888889)"/><use xlink:href="#F" transform="matrix(1,0,0,1,351.13333326447224,1188.466666666667) translate(114.11111111111106 208.72222222222223)"/><use xlink:href="#G" transform="matrix(1,0,0,1,351.13333326447224,1188.466666666667) translate(204.82716049382714 208.72222222222223)"/><use xlink:href="#H" transform="matrix(1,0,0,1,351.13333326447224,1188.466666666667) translate(350 208.72222222222223)"/><g transform="matrix(1,0,0,1,351.13333326447224,1188.466666666667)"><a xlink:href="https://mainnet.block-engine.jito.wtf/api/v1/bundles" target="_blank"><path class="lucid-link lucid-hotspot lucid-overlay-hotspot" fill-opacity="0" d="M-16.12 42.5h545.25v29.33H-16.12z"/></a></g><path d="M717.47 502.14H691v-2.95h26.47zm92.6 0h-32.7v-2.95h32.7z" stroke="#3a414a" stroke-width=".05" fill="#3a414a"/><path d="M691.04 502.14h-1.54v-2.95h1.54z" fill="#3a414a"/><path stroke="#3a414a" stroke-width=".05" fill="#3a414a"/><path d="M818.22 500.67l-12.9 7.63v-15.27z" fill="#3a414a"/><path d="M821.12 500.67l-17.3 10.22v-20.45zm-14.34 5.05l8.54-5.05-8.54-5.05z" stroke="#3a414a" stroke-width=".05" fill="#3a414a"/><g><use xlink:href="#g" transform="matrix(1,0,0,1,717.4730557452486,476.6666666666667) translate(0 32)"/></g><path d="M712.54 758.7l-21.53.1v-2.95l21.54-.1zm97.53-.5l-37.64.2v-2.96l37.62-.2z" stroke="#3a414a" stroke-width=".05" fill="#3a414a"/><path d="M691.05 758.8h-1.55v-2.94h1.53z" fill="#3a414a"/><path stroke="#3a414a" stroke-width=".05" fill="#3a414a"/><path d="M818.22 756.68l-12.87 7.7-.08-15.27z" fill="#3a414a"/><path d="M821.12 756.67l-17.23 10.3-.12-20.44zm-14.3 5.12l8.5-5.1-8.56-5z" stroke="#3a414a" stroke-width=".05" fill="#3a414a"/><g><use xlink:href="#g" transform="matrix(1,0,0,1,712.5443468296633,733.0650415824927) translate(0 32)"/></g><path d="M720.4 998.2l-29.37.58-.06-2.95 29.44-.57zm96.35-1.84l-36.46.7v-2.95l36.4-.7z" stroke="#3a414a" stroke-width=".05" fill="#3a414a"/><path d="M691.07 998.78l-1.57.03v-2.94l1.5-.03z" fill="#3a414a"/><path stroke="#3a414a" stroke-width=".05" fill="#3a414a"/><path d="M824.9 994.72l-12.77 7.9-.3-15.28z" fill="#3a414a"/><path d="M827.78 994.67l-17.08 10.55-.4-20.44zm-14.23 5.32l8.44-5.22-8.64-4.88z" stroke="#3a414a" stroke-width=".05" fill="#3a414a"/><g><use xlink:href="#g" transform="matrix(1,0,0,1,720.4055887934926,972.1603429493696) translate(0 32)"/></g><path d="M822.67 431.33a6 6 0 0 1 6-6h544a6 6 0 0 1 6 6V570a6 6 0 0 1-6 6h-544a6 6 0 0 1-6-6z" stroke="#3a414a" stroke-width="3" fill="#fff"/><g><use xlink:href="#I" transform="matrix(1,0,0,1,850.4666666666667,432.8666666666666) translate(-18.29629629629636 19.111111111111107)"/><use xlink:href="#J" transform="matrix(1,0,0,1,850.4666666666667,432.8666666666666) translate(122.38271604938274 45.77777777777777)"/><use xlink:href="#K" transform="matrix(1,0,0,1,850.4666666666667,432.8666666666666) translate(167.93827160493828 45.77777777777777)"/><use xlink:href="#L" transform="matrix(1,0,0,1,850.4666666666667,432.8666666666666) translate(240.5308641975309 45.77777777777777)"/><use xlink:href="#M" transform="matrix(1,0,0,1,850.4666666666667,432.8666666666666) translate(277.5679012345679 45.77777777777777)"/><use xlink:href="#N" transform="matrix(1,0,0,1,850.4666666666667,432.8666666666666) translate(320.77777777777777 45.77777777777777)"/><use xlink:href="#O" transform="matrix(1,0,0,1,850.4666666666667,432.8666666666666) translate(355.22222222222223 45.77777777777777)"/><use xlink:href="#P" transform="matrix(1,0,0,1,850.4666666666667,432.8666666666666) translate(109.94444444444446 72.44444444444444)"/><use xlink:href="#Q" transform="matrix(1,0,0,1,850.4666666666667,432.8666666666666) translate(170.31481481481484 72.44444444444444)"/><use xlink:href="#N" transform="matrix(1,0,0,1,850.4666666666667,432.8666666666666) translate(224.63580246913583 72.44444444444444)"/><use xlink:href="#R" transform="matrix(1,0,0,1,850.4666666666667,432.8666666666666) translate(259.08024691358025 72.44444444444444)"/><use xlink:href="#S" transform="matrix(1,0,0,1,850.4666666666667,432.8666666666666) translate(296.1172839506173 72.44444444444444)"/><use xlink:href="#T" transform="matrix(1,0,0,1,850.4666666666667,432.8666666666666) translate(326.9814814814815 72.44444444444444)"/><use xlink:href="#U" transform="matrix(1,0,0,1,850.4666666666667,432.8666666666666) translate(176.42592592592592 99.11111111111111)"/><use xlink:href="#V" transform="matrix(1,0,0,1,850.4666666666667,432.8666666666666) translate(231.98148148148147 99.11111111111111)"/><use xlink:href="#W" transform="matrix(1,0,0,1,850.4666666666667,432.8666666666666) translate(280.1296296296296 99.11111111111111)"/><use xlink:href="#X" transform="matrix(1,0,0,1,850.4666666666667,432.8666666666666) translate(146.2716049382716 125.77777777777777)"/><use xlink:href="#Y" transform="matrix(1,0,0,1,850.4666666666667,432.8666666666666) translate(200.53086419753086 125.77777777777777)"/><use xlink:href="#Z" transform="matrix(1,0,0,1,850.4666666666667,432.8666666666666) translate(310.28395061728395 125.77777777777777)"/></g><g transform="matrix(1,0,0,1,850.4666666666667,432.8666666666666)"><a xlink:href="https://mainnet.block-engine.jito.wtf/api/v1/transactions" target="_blank"><path class="lucid-link lucid-hotspot lucid-overlay-hotspot" fill-opacity="0" d="M-18.3 1.33h537.6V28H-18.3z"/></a></g><path d="M822.67 673.78a6 6 0 0 1 6-6h544a6 6 0 0 1 6 6v165.78a6 6 0 0 1-6 6h-544a6 6 0 0 1-6-6z" stroke="#3a414a" stroke-width="3" fill="#fff"/><g><use xlink:href="#I" transform="matrix(1,0,0,1,850.4666666666667,676.6666666666667) translate(-18.29629629629636 17.77777777777778)"/><use xlink:href="#J" transform="matrix(1,0,0,1,850.4666666666667,676.6666666666667) translate(122.38271604938274 44.44444444444444)"/><use xlink:href="#K" transform="matrix(1,0,0,1,850.4666666666667,676.6666666666667) translate(167.93827160493828 44.44444444444444)"/><use xlink:href="#L" transform="matrix(1,0,0,1,850.4666666666667,676.6666666666667) translate(240.5308641975309 44.44444444444444)"/><use xlink:href="#M" transform="matrix(1,0,0,1,850.4666666666667,676.6666666666667) translate(277.5679012345679 44.44444444444444)"/><use xlink:href="#N" transform="matrix(1,0,0,1,850.4666666666667,676.6666666666667) translate(320.77777777777777 44.44444444444444)"/><use xlink:href="#O" transform="matrix(1,0,0,1,850.4666666666667,676.6666666666667) translate(355.22222222222223 44.44444444444444)"/><use xlink:href="#P" transform="matrix(1,0,0,1,850.4666666666667,676.6666666666667) translate(109.94444444444446 71.11111111111111)"/><use xlink:href="#Q" transform="matrix(1,0,0,1,850.4666666666667,676.6666666666667) translate(170.31481481481484 71.11111111111111)"/><use xlink:href="#N" transform="matrix(1,0,0,1,850.4666666666667,676.6666666666667) translate(224.63580246913583 71.11111111111111)"/><use xlink:href="#R" transform="matrix(1,0,0,1,850.4666666666667,676.6666666666667) translate(259.08024691358025 71.11111111111111)"/><use xlink:href="#S" transform="matrix(1,0,0,1,850.4666666666667,676.6666666666667) translate(296.1172839506173 71.11111111111111)"/><use xlink:href="#T" transform="matrix(1,0,0,1,850.4666666666667,676.6666666666667) translate(326.9814814814815 71.11111111111111)"/><use xlink:href="#U" transform="matrix(1,0,0,1,850.4666666666667,676.6666666666667) translate(176.42592592592592 97.77777777777777)"/><use xlink:href="#V" transform="matrix(1,0,0,1,850.4666666666667,676.6666666666667) translate(231.98148148148147 97.77777777777777)"/><use xlink:href="#W" transform="matrix(1,0,0,1,850.4666666666667,676.6666666666667) translate(280.1296296296296 97.77777777777777)"/><use xlink:href="#X" transform="matrix(1,0,0,1,850.4666666666667,676.6666666666667) translate(146.2716049382716 124.44444444444446)"/><use xlink:href="#Y" transform="matrix(1,0,0,1,850.4666666666667,676.6666666666667) translate(200.53086419753086 124.44444444444446)"/><use xlink:href="#W" transform="matrix(1,0,0,1,850.4666666666667,676.6666666666667) translate(310.28395061728395 124.44444444444446)"/><use xlink:href="#aa" transform="matrix(1,0,0,1,850.4666666666667,676.6666666666667) translate(143.24691358024694 151.11111111111111)"/><use xlink:href="#Y" transform="matrix(1,0,0,1,850.4666666666667,676.6666666666667) translate(214.7283950617284 151.11111111111111)"/><use xlink:href="#ab" transform="matrix(1,0,0,1,850.4666666666667,676.6666666666667) translate(324.4814814814815 151.11111111111111)"/></g><g transform="matrix(1,0,0,1,850.4666666666667,676.6666666666667)"><a xlink:href="https://mainnet.block-engine.jito.wtf/api/v1/transactions" target="_blank"><path class="lucid-link lucid-hotspot lucid-overlay-hotspot" fill-opacity="0" d="M-18.3 0h537.6v26.67H-18.3z"/></a></g><path d="M829.33 896.96a6 6 0 0 1 6-6h537.34a6 6 0 0 1 6 6v195.4a6 6 0 0 1-6 6H835.33a6 6 0 0 1-6-6z" stroke="#3a414a" stroke-width="3" fill="#fff"/><g><use xlink:href="#I" transform="matrix(1,0,0,1,856.8,901.3333333333334) translate(-21.29629629629636 17.94444444444445)"/><use xlink:href="#J" transform="matrix(1,0,0,1,856.8,901.3333333333334) translate(119.38271604938274 44.611111111111114)"/><use xlink:href="#K" transform="matrix(1,0,0,1,856.8,901.3333333333334) translate(164.93827160493828 44.611111111111114)"/><use xlink:href="#L" transform="matrix(1,0,0,1,856.8,901.3333333333334) translate(237.5308641975309 44.611111111111114)"/><use xlink:href="#M" transform="matrix(1,0,0,1,856.8,901.3333333333334) translate(274.5679012345679 44.611111111111114)"/><use xlink:href="#N" transform="matrix(1,0,0,1,856.8,901.3333333333334) translate(317.77777777777777 44.611111111111114)"/><use xlink:href="#O" transform="matrix(1,0,0,1,856.8,901.3333333333334) translate(352.22222222222223 44.611111111111114)"/><use xlink:href="#P" transform="matrix(1,0,0,1,856.8,901.3333333333334) translate(106.94444444444446 71.27777777777779)"/><use xlink:href="#Q" transform="matrix(1,0,0,1,856.8,901.3333333333334) translate(167.31481481481484 71.27777777777779)"/><use xlink:href="#N" transform="matrix(1,0,0,1,856.8,901.3333333333334) translate(221.63580246913583 71.27777777777779)"/><use xlink:href="#R" transform="matrix(1,0,0,1,856.8,901.3333333333334) translate(256.08024691358025 71.27777777777779)"/><use xlink:href="#S" transform="matrix(1,0,0,1,856.8,901.3333333333334) translate(293.1172839506173 71.27777777777779)"/><use xlink:href="#T" transform="matrix(1,0,0,1,856.8,901.3333333333334) translate(323.9814814814815 71.27777777777779)"/><use xlink:href="#U" transform="matrix(1,0,0,1,856.8,901.3333333333334) translate(173.42592592592592 97.94444444444446)"/><use xlink:href="#V" transform="matrix(1,0,0,1,856.8,901.3333333333334) translate(228.98148148148147 97.94444444444446)"/><use xlink:href="#W" transform="matrix(1,0,0,1,856.8,901.3333333333334) translate(277.1296296296296 97.94444444444446)"/><use xlink:href="#X" transform="matrix(1,0,0,1,856.8,901.3333333333334) translate(143.2716049382716 124.61111111111111)"/><use xlink:href="#Y" transform="matrix(1,0,0,1,856.8,901.3333333333334) translate(197.53086419753086 124.61111111111111)"/><use xlink:href="#W" transform="matrix(1,0,0,1,856.8,901.3333333333334) translate(307.28395061728395 124.61111111111111)"/><use xlink:href="#aa" transform="matrix(1,0,0,1,856.8,901.3333333333334) translate(134.6604938271605 151.27777777777777)"/><use xlink:href="#Y" transform="matrix(1,0,0,1,856.8,901.3333333333334) translate(206.14197530864197 151.27777777777777)"/><use xlink:href="#W" transform="matrix(1,0,0,1,856.8,901.3333333333334) translate(315.89506172839504 151.27777777777777)"/><use xlink:href="#ac" transform="matrix(1,0,0,1,856.8,901.3333333333334) translate(129.19753086419755 177.94444444444446)"/><use xlink:href="#ad" transform="matrix(1,0,0,1,856.8,901.3333333333334) translate(211.66666666666669 177.94444444444446)"/><use xlink:href="#ab" transform="matrix(1,0,0,1,856.8,901.3333333333334) translate(332.53086419753083 177.94444444444446)"/></g><g transform="matrix(1,0,0,1,856.8,901.3333333333334)"><a xlink:href="https://mainnet.block-engine.jito.wtf/api/v1/transactions" target="_blank"><path class="lucid-link lucid-hotspot lucid-overlay-hotspot" fill-opacity="0" d="M-21.3.17h537.6v26.67H-21.3z"/></a></g><defs><path d="M30-248c118-7 216 8 213 122C240-48 200 0 122 0H30v-248zM63-27c89 8 146-16 146-99s-60-101-146-95v194" id="ae"/><path d="M100-194c62-1 85 37 85 99 1 63-27 99-86 99S16-35 15-95c0-66 28-99 85-99zM99-20c44 1 53-31 53-75 0-43-8-75-51-75s-53 32-53 75 10 74 51 75" id="af"/><g id="a"><use transform="matrix(0.07222222222222222,0,0,0.07222222222222222,0,0)" xlink:href="#ae"/><use transform="matrix(0.07222222222222222,0,0,0.07222222222222222,18.705555555555552,0)" xlink:href="#af"/></g><path d="M33 0v-248h34V0H33" id="ag"/><use transform="matrix(0.07222222222222222,0,0,0.07222222222222222,0,0)" xlink:href="#ag" id="b"/><path d="M206 0h-36l-40-164L89 0H53L-1-190h32L70-26l43-164h34l41 164 42-164h31" id="ah"/><path d="M141-36C126-15 110 5 73 4 37 3 15-17 15-53c-1-64 63-63 125-63 3-35-9-54-41-54-24 1-41 7-42 31l-33-3c5-37 33-52 76-52 45 0 72 20 72 64v82c-1 20 7 32 28 27v20c-31 9-61-2-59-35zM48-53c0 20 12 33 32 33 41-3 63-29 60-74-43 2-92-5-92 41" id="ai"/><path d="M117-194c89-4 53 116 60 194h-32v-121c0-31-8-49-39-48C34-167 62-67 57 0H25l-1-190h30c1 10-1 24 2 32 11-22 29-35 61-36" id="aj"/><path d="M59-47c-2 24 18 29 38 22v24C64 9 27 4 27-40v-127H5v-23h24l9-43h21v43h35v23H59v120" id="ak"/><g id="c"><use transform="matrix(0.07222222222222222,0,0,0.07222222222222222,0,0)" xlink:href="#ah"/><use transform="matrix(0.07222222222222222,0,0,0.07222222222222222,18.705555555555552,0)" xlink:href="#ai"/><use transform="matrix(0.07222222222222222,0,0,0.07222222222222222,33.14999999999999,0)" xlink:href="#aj"/><use transform="matrix(0.07222222222222222,0,0,0.07222222222222222,47.594444444444434,0)" xlink:href="#ak"/></g><g id="d"><use transform="matrix(0.07222222222222222,0,0,0.07222222222222222,0,0)" xlink:href="#ak"/><use transform="matrix(0.07222222222222222,0,0,0.07222222222222222,7.222222222222221,0)" xlink:href="#af"/></g><path d="M24 0v-261h32V0H24" id="al"/><path d="M85-194c31 0 48 13 60 33l-1-100h32l1 261h-30c-2-10 0-23-3-31C134-8 116 4 85 4 32 4 16-35 15-94c0-66 23-100 70-100zm9 24c-40 0-46 34-46 75 0 40 6 74 45 74 42 0 51-32 51-76 0-42-9-74-50-73" id="am"/><g id="e"><use transform="matrix(0.07222222222222222,0,0,0.07222222222222222,0,0)" xlink:href="#al"/><use transform="matrix(0.07222222222222222,0,0,0.07222222222222222,5.705555555555555,0)" xlink:href="#ai"/><use transform="matrix(0.07222222222222222,0,0,0.07222222222222222,20.15,0)" xlink:href="#aj"/><use transform="matrix(0.07222222222222222,0,0,0.07222222222222222,34.59444444444444,0)" xlink:href="#am"/></g><path d="M101-234c-31-9-42 10-38 44h38v23H63V0H32v-167H5v-23h27c-7-52 17-82 69-68v24" id="an"/><path d="M135-143c-3-34-86-38-87 0 15 53 115 12 119 90S17 21 10-45l28-5c4 36 97 45 98 0-10-56-113-15-118-90-4-57 82-63 122-42 12 7 21 19 24 35" id="ao"/><path d="M103-251c84 0 111 97 45 133-19 10-37 24-39 52H78c0-63 77-55 77-114 0-30-21-42-52-43-32 0-53 17-56 46l-32-2c7-45 34-72 88-72zM77 0v-35h34V0H77" id="ap"/><g id="f"><use transform="matrix(0.07222222222222222,0,0,0.07222222222222222,0,0)" xlink:href="#an"/><use transform="matrix(0.07222222222222222,0,0,0.07222222222222222,7.222222222222221,0)" xlink:href="#ai"/><use transform="matrix(0.07222222222222222,0,0,0.07222222222222222,21.666666666666664,0)" xlink:href="#ao"/><use transform="matrix(0.07222222222222222,0,0,0.07222222222222222,34.666666666666664,0)" xlink:href="#ak"/><use transform="matrix(0.07222222222222222,0,0,0.07222222222222222,41.888888888888886,0)" xlink:href="#ap"/></g><path fill="#333" d="M175 0L67-191c6 58 2 128 3 191H24v-248h59L193-55c-6-58-2-129-3-193h46V0h-61" id="aq"/><path fill="#333" d="M140-251c80 0 125 45 125 126S219 4 139 4C58 4 15-44 15-125s44-126 125-126zm-1 214c52 0 73-35 73-88 0-50-21-86-72-86-52 0-73 35-73 86s22 88 72 88" id="ar"/><g id="g"><use transform="matrix(0.1111111111111111,0,0,0.1111111111111111,0,0)" xlink:href="#aq"/><use transform="matrix(0.1111111111111111,0,0,0.1111111111111111,28.777777777777775,0)" xlink:href="#ar"/></g><path d="M232-93c-1 65-40 97-104 97C67 4 28-28 28-90v-158h33c8 89-33 224 67 224 102 0 64-133 71-224h33v155" id="as"/><path d="M100-194c63 0 86 42 84 106H49c0 40 14 67 53 68 26 1 43-12 49-29l28 8c-11 28-37 45-77 45C44 4 14-33 15-96c1-61 26-98 85-98zm52 81c6-60-76-77-97-28-3 7-6 17-6 28h103" id="at"/><g id="h"><use transform="matrix(0.07222222222222222,0,0,0.07222222222222222,0,0)" xlink:href="#as"/><use transform="matrix(0.07222222222222222,0,0,0.07222222222222222,18.705555555555552,0)" xlink:href="#ao"/><use transform="matrix(0.07222222222222222,0,0,0.07222222222222222,31.70555555555555,0)" xlink:href="#at"/></g><path d="M106-169C34-169 62-67 57 0H25v-261h32l-1 103c12-21 28-36 61-36 89 0 53 116 60 194h-32v-121c2-32-8-49-39-48" id="au"/><path d="M114-163C36-179 61-72 57 0H25l-1-190h30c1 12-1 29 2 39 6-27 23-49 58-41v29" id="av"/><g id="i"><use transform="matrix(0.07222222222222222,0,0,0.07222222222222222,0,0)" xlink:href="#ai"/><use transform="matrix(0.07222222222222222,0,0,0.07222222222222222,14.444444444444443,0)" xlink:href="#aj"/><use transform="matrix(0.07222222222222222,0,0,0.07222222222222222,28.888888888888886,0)" xlink:href="#af"/><use transform="matrix(0.07222222222222222,0,0,0.07222222222222222,43.33333333333333,0)" xlink:href="#ak"/><use transform="matrix(0.07222222222222222,0,0,0.07222222222222222,50.55555555555555,0)" xlink:href="#au"/><use transform="matrix(0.07222222222222222,0,0,0.07222222222222222,65,0)" xlink:href="#at"/><use transform="matrix(0.07222222222222222,0,0,0.07222222222222222,79.44444444444444,0)" xlink:href="#av"/></g><path d="M115-194c55 1 70 41 70 98S169 2 115 4C84 4 66-9 55-30l1 105H24l-1-265h31l2 30c10-21 28-34 59-34zm-8 174c40 0 45-34 45-75s-6-73-45-74c-42 0-51 32-51 76 0 43 10 73 51 73" id="aw"/><path d="M84 4C-5 8 30-112 23-190h32v120c0 31 7 50 39 49 72-2 45-101 50-169h31l1 190h-30c-1-10 1-25-2-33-11 22-28 36-60 37" id="ax"/><path d="M96-169c-40 0-48 33-48 73s9 75 48 75c24 0 41-14 43-38l32 2c-6 37-31 61-74 61-59 0-76-41-82-99-10-93 101-131 147-64 4 7 5 14 7 22l-32 3c-4-21-16-35-41-35" id="ay"/><g id="j"><use transform="matrix(0.07222222222222222,0,0,0.07222222222222222,0,0)" xlink:href="#aw"/><use transform="matrix(0.07222222222222222,0,0,0.07222222222222222,14.444444444444443,0)" xlink:href="#av"/><use transform="matrix(0.07222222222222222,0,0,0.07222222222222222,23.038888888888884,0)" xlink:href="#af"/><use transform="matrix(0.07222222222222222,0,0,0.07222222222222222,37.48333333333333,0)" xlink:href="#am"/><use transform="matrix(0.07222222222222222,0,0,0.07222222222222222,51.92777777777777,0)" xlink:href="#ax"/><use transform="matrix(0.07222222222222222,0,0,0.07222222222222222,66.3722222222222,0)" xlink:href="#ay"/><use transform="matrix(0.07222222222222222,0,0,0.07222222222222222,79.37222222222219,0)" xlink:href="#ak"/></g><path fill="#333" d="M146-102V0H94v-102L6-248h54l60 105 60-105h54" id="az"/><path fill="#333" d="M24 0v-248h195v40H76v63h132v40H76v65h150V0H24" id="aA"/><path fill="#333" d="M169-182c-1-43-94-46-97-3 18 66 151 10 154 114 3 95-165 93-204 36-6-8-10-19-12-30l50-8c3 46 112 56 116 5-17-69-150-10-154-114-4-87 153-88 188-35 5 8 8 18 10 28" id="aB"/><g id="k"><use transform="matrix(0.1111111111111111,0,0,0.1111111111111111,0,0)" xlink:href="#az"/><use transform="matrix(0.1111111111111111,0,0,0.1111111111111111,26.666666666666664,0)" xlink:href="#aA"/><use transform="matrix(0.1111111111111111,0,0,0.1111111111111111,53.33333333333333,0)" xlink:href="#aB"/></g><path d="M240 0l2-218c-23 76-54 145-80 218h-23L58-218 59 0H30v-248h44l77 211c21-75 51-140 76-211h43V0h-30" id="aC"/><path d="M30 0v-248h187v28H63v79h144v27H63v87h162V0H30" id="aD"/><path d="M137 0h-34L2-248h35l83 218 83-218h36" id="aE"/><g id="l"><use transform="matrix(0.07222222222222222,0,0,0.07222222222222222,0,0)" xlink:href="#aC"/><use transform="matrix(0.07222222222222222,0,0,0.07222222222222222,21.59444444444444,0)" xlink:href="#aD"/><use transform="matrix(0.07222222222222222,0,0,0.07222222222222222,38.92777777777778,0)" xlink:href="#aE"/></g><path d="M24-231v-30h32v30H24zM24 0v-190h32V0H24" id="aF"/><g id="m"><use transform="matrix(0.07222222222222222,0,0,0.07222222222222222,0,0)" xlink:href="#aw"/><use transform="matrix(0.07222222222222222,0,0,0.07222222222222222,14.444444444444443,0)" xlink:href="#av"/><use transform="matrix(0.07222222222222222,0,0,0.07222222222222222,23.038888888888884,0)" xlink:href="#af"/><use transform="matrix(0.07222222222222222,0,0,0.07222222222222222,37.48333333333333,0)" xlink:href="#ak"/><use transform="matrix(0.07222222222222222,0,0,0.07222222222222222,44.70555555555555,0)" xlink:href="#at"/><use transform="matrix(0.07222222222222222,0,0,0.07222222222222222,59.14999999999999,0)" xlink:href="#ay"/><use transform="matrix(0.07222222222222222,0,0,0.07222222222222222,72.14999999999999,0)" xlink:href="#ak"/><use transform="matrix(0.07222222222222222,0,0,0.07222222222222222,79.37222222222219,0)" xlink:href="#aF"/><use transform="matrix(0.07222222222222222,0,0,0.07222222222222222,85.07777777777775,0)" xlink:href="#af"/><use transform="matrix(0.07222222222222222,0,0,0.07222222222222222,99.5222222222222,0)" xlink:href="#aj"/><use transform="matrix(0.07222222222222222,0,0,0.07222222222222222,113.96666666666664,0)" xlink:href="#ap"/></g><path d="M108 0H70L1-190h34L89-25l56-165h34" id="aG"/><g id="n"><use transform="matrix(0.07222222222222222,0,0,0.07222222222222222,0,0)" xlink:href="#av"/><use transform="matrix(0.07222222222222222,0,0,0.07222222222222222,8.594444444444443,0)" xlink:href="#at"/><use transform="matrix(0.07222222222222222,0,0,0.07222222222222222,23.038888888888884,0)" xlink:href="#aG"/><use transform="matrix(0.07222222222222222,0,0,0.07222222222222222,36.038888888888884,0)" xlink:href="#at"/><use transform="matrix(0.07222222222222222,0,0,0.07222222222222222,50.48333333333333,0)" xlink:href="#av"/><use transform="matrix(0.07222222222222222,0,0,0.07222222222222222,59.077777777777776,0)" xlink:href="#ak"/></g><g id="o"><use transform="matrix(0.07222222222222222,0,0,0.07222222222222222,0,0)" xlink:href="#aj"/><use transform="matrix(0.07222222222222222,0,0,0.07222222222222222,14.444444444444443,0)" xlink:href="#at"/><use transform="matrix(0.07222222222222222,0,0,0.07222222222222222,28.888888888888886,0)" xlink:href="#at"/><use transform="matrix(0.07222222222222222,0,0,0.07222222222222222,43.33333333333333,0)" xlink:href="#am"/></g><g id="p"><use transform="matrix(0.07222222222222222,0,0,0.07222222222222222,0,0)" xlink:href="#aw"/><use transform="matrix(0.07222222222222222,0,0,0.07222222222222222,14.444444444444443,0)" xlink:href="#av"/><use transform="matrix(0.07222222222222222,0,0,0.07222222222222222,23.038888888888884,0)" xlink:href="#af"/><use transform="matrix(0.07222222222222222,0,0,0.07222222222222222,37.48333333333333,0)" xlink:href="#ay"/><use transform="matrix(0.07222222222222222,0,0,0.07222222222222222,50.48333333333333,0)" xlink:href="#at"/><use transform="matrix(0.07222222222222222,0,0,0.07222222222222222,64.92777777777778,0)" xlink:href="#ao"/><use transform="matrix(0.07222222222222222,0,0,0.07222222222222222,77.92777777777778,0)" xlink:href="#ao"/></g><path d="M210-169c-67 3-38 105-44 169h-31v-121c0-29-5-50-35-48C34-165 62-65 56 0H25l-1-190h30c1 10-1 24 2 32 10-44 99-50 107 0 11-21 27-35 58-36 85-2 47 119 55 194h-31v-121c0-29-5-49-35-48" id="aH"/><g id="q"><use transform="matrix(0.07222222222222222,0,0,0.07222222222222222,0,0)" xlink:href="#aH"/><use transform="matrix(0.07222222222222222,0,0,0.07222222222222222,21.59444444444444,0)" xlink:href="#ax"/><use transform="matrix(0.07222222222222222,0,0,0.07222222222222222,36.038888888888884,0)" xlink:href="#al"/><use transform="matrix(0.07222222222222222,0,0,0.07222222222222222,41.74444444444444,0)" xlink:href="#ak"/><use transform="matrix(0.07222222222222222,0,0,0.07222222222222222,48.96666666666666,0)" xlink:href="#aF"/><use transform="matrix(0.07222222222222222,0,0,0.07222222222222222,54.67222222222222,0)" xlink:href="#aw"/><use transform="matrix(0.07222222222222222,0,0,0.07222222222222222,69.11666666666666,0)" xlink:href="#al"/><use transform="matrix(0.07222222222222222,0,0,0.07222222222222222,74.82222222222221,0)" xlink:href="#at"/></g><g id="r"><use transform="matrix(0.07222222222222222,0,0,0.07222222222222222,0,0)" xlink:href="#ak"/><use transform="matrix(0.07222222222222222,0,0,0.07222222222222222,7.222222222222221,0)" xlink:href="#av"/><use transform="matrix(0.07222222222222222,0,0,0.07222222222222222,15.816666666666665,0)" xlink:href="#ai"/><use transform="matrix(0.07222222222222222,0,0,0.07222222222222222,30.261111111111106,0)" xlink:href="#aj"/><use transform="matrix(0.07222222222222222,0,0,0.07222222222222222,44.70555555555555,0)" xlink:href="#ao"/><use transform="matrix(0.07222222222222222,0,0,0.07222222222222222,57.70555555555555,0)" xlink:href="#ai"/><use transform="matrix(0.07222222222222222,0,0,0.07222222222222222,72.14999999999999,0)" xlink:href="#ay"/><use transform="matrix(0.07222222222222222,0,0,0.07222222222222222,85.14999999999999,0)" xlink:href="#ak"/><use transform="matrix(0.07222222222222222,0,0,0.07222222222222222,92.37222222222222,0)" xlink:href="#aF"/><use transform="matrix(0.07222222222222222,0,0,0.07222222222222222,98.07777777777775,0)" xlink:href="#af"/><use transform="matrix(0.07222222222222222,0,0,0.07222222222222222,112.5222222222222,0)" xlink:href="#aj"/></g><path d="M145-31C134-9 116 4 85 4 32 4 16-35 15-94c0-59 17-99 70-100 32-1 48 14 60 33 0-11-1-24 2-32h30l-1 268h-32zM93-21c41 0 51-33 51-76s-8-73-50-73c-40 0-46 35-46 75s5 74 45 74" id="aI"/><path d="M179-190L93 31C79 59 56 82 12 73V49c39 6 53-20 64-50L1-190h34L92-34l54-156h33" id="aJ"/><g id="s"><use transform="matrix(0.07222222222222222,0,0,0.07222222222222222,0,0)" xlink:href="#ao"/><use transform="matrix(0.07222222222222222,0,0,0.07222222222222222,12.999999999999998,0)" xlink:href="#at"/><use transform="matrix(0.07222222222222222,0,0,0.07222222222222222,27.444444444444443,0)" xlink:href="#aI"/><use transform="matrix(0.07222222222222222,0,0,0.07222222222222222,41.888888888888886,0)" xlink:href="#ax"/><use transform="matrix(0.07222222222222222,0,0,0.07222222222222222,56.33333333333333,0)" xlink:href="#at"/><use transform="matrix(0.07222222222222222,0,0,0.07222222222222222,70.77777777777777,0)" xlink:href="#aj"/><use transform="matrix(0.07222222222222222,0,0,0.07222222222222222,85.22222222222221,0)" xlink:href="#ak"/><use transform="matrix(0.07222222222222222,0,0,0.07222222222222222,92.44444444444443,0)" xlink:href="#aF"/><use transform="matrix(0.07222222222222222,0,0,0.07222222222222222,98.14999999999998,0)" xlink:href="#ai"/><use transform="matrix(0.07222222222222222,0,0,0.07222222222222222,112.59444444444442,0)" xlink:href="#al"/><use transform="matrix(0.07222222222222222,0,0,0.07222222222222222,118.29999999999997,0)" xlink:href="#al"/><use transform="matrix(0.07222222222222222,0,0,0.07222222222222222,124.00555555555552,0)" xlink:href="#aJ"/></g><g id="t"><use transform="matrix(0.07222222222222222,0,0,0.07222222222222222,0,0)" xlink:href="#ai"/><use transform="matrix(0.07222222222222222,0,0,0.07222222222222222,14.444444444444443,0)" xlink:href="#aj"/><use transform="matrix(0.07222222222222222,0,0,0.07222222222222222,28.888888888888886,0)" xlink:href="#am"/></g><g id="u"><use transform="matrix(0.07222222222222222,0,0,0.07222222222222222,0,0)" xlink:href="#ai"/><use transform="matrix(0.07222222222222222,0,0,0.07222222222222222,14.444444444444443,0)" xlink:href="#ak"/><use transform="matrix(0.07222222222222222,0,0,0.07222222222222222,21.666666666666664,0)" xlink:href="#af"/><use transform="matrix(0.07222222222222222,0,0,0.07222222222222222,36.11111111111111,0)" xlink:href="#aH"/><use transform="matrix(0.07222222222222222,0,0,0.07222222222222222,57.70555555555555,0)" xlink:href="#aF"/><use transform="matrix(0.07222222222222222,0,0,0.07222222222222222,63.411111111111104,0)" xlink:href="#ay"/><use transform="matrix(0.07222222222222222,0,0,0.07222222222222222,76.4111111111111,0)" xlink:href="#ai"/><use transform="matrix(0.07222222222222222,0,0,0.07222222222222222,90.85555555555554,0)" xlink:href="#al"/><use transform="matrix(0.07222222222222222,0,0,0.07222222222222222,96.56111111111109,0)" xlink:href="#al"/><use transform="matrix(0.07222222222222222,0,0,0.07222222222222222,102.26666666666664,0)" xlink:href="#aJ"/><use transform="matrix(0.07222222222222222,0,0,0.07222222222222222,115.26666666666664,0)" xlink:href="#ap"/></g><path d="M33-154v-36h34v36H33zM33 0v-36h34V0H33" id="aK"/><path d="M0 4l72-265h28L28 4H0" id="aL"/><path d="M33 0v-38h34V0H33" id="aM"/><path d="M115-194c53 0 69 39 70 98 0 66-23 100-70 100C84 3 66-7 56-30L54 0H23l1-261h32v101c10-23 28-34 59-34zm-8 174c40 0 45-34 45-75 0-40-5-75-45-74-42 0-51 32-51 76 0 43 10 73 51 73" id="aN"/><path d="M143 0L79-87 56-68V0H24v-261h32v163l83-92h37l-77 82L181 0h-38" id="aO"/><path d="M16-82v-28h88v28H16" id="aP"/><path d="M177-190C167-65 218 103 67 71c-23-6-38-20-44-43l32-5c15 47 100 32 89-28v-30C133-14 115 1 83 1 29 1 15-40 15-95c0-56 16-97 71-98 29-1 48 16 59 35 1-10 0-23 2-32h30zM94-22c36 0 50-32 50-73 0-42-14-75-50-75-39 0-46 34-46 75s6 73 46 73" id="aQ"/><path d="M24-231v-30h32v30H24zM-9 49c24 4 33-6 33-30v-209h32V24c2 40-23 58-65 49V49" id="aR"/><path d="M27 0v-27h64v-190l-56 39v-29l58-41h29v221h61V0H27" id="aS"/><g id="v"><use transform="matrix(0.06790123456790124,0,0,0.06790123456790124,0,0)" xlink:href="#au"/><use transform="matrix(0.06790123456790124,0,0,0.06790123456790124,13.580246913580249,0)" xlink:href="#ak"/><use transform="matrix(0.06790123456790124,0,0,0.06790123456790124,20.370370370370374,0)" xlink:href="#ak"/><use transform="matrix(0.06790123456790124,0,0,0.06790123456790124,27.160493827160497,0)" xlink:href="#aw"/><use transform="matrix(0.06790123456790124,0,0,0.06790123456790124,40.74074074074075,0)" xlink:href="#ao"/><use transform="matrix(0.06790123456790124,0,0,0.06790123456790124,52.96296296296297,0)" xlink:href="#aK"/><use transform="matrix(0.06790123456790124,0,0,0.06790123456790124,59.753086419753096,0)" xlink:href="#aL"/><use transform="matrix(0.06790123456790124,0,0,0.06790123456790124,66.54320987654322,0)" xlink:href="#aL"/><use transform="matrix(0.06790123456790124,0,0,0.06790123456790124,73.33333333333334,0)" xlink:href="#aH"/><use transform="matrix(0.06790123456790124,0,0,0.06790123456790124,93.63580246913581,0)" xlink:href="#ai"/><use transform="matrix(0.06790123456790124,0,0,0.06790123456790124,107.21604938271606,0)" xlink:href="#aF"/><use transform="matrix(0.06790123456790124,0,0,0.06790123456790124,112.58024691358027,0)" xlink:href="#aj"/><use transform="matrix(0.06790123456790124,0,0,0.06790123456790124,126.16049382716052,0)" xlink:href="#aj"/><use transform="matrix(0.06790123456790124,0,0,0.06790123456790124,139.74074074074076,0)" xlink:href="#at"/><use transform="matrix(0.06790123456790124,0,0,0.06790123456790124,153.32098765432102,0)" xlink:href="#ak"/><use transform="matrix(0.06790123456790124,0,0,0.06790123456790124,160.11111111111114,0)" xlink:href="#aM"/><use transform="matrix(0.06790123456790124,0,0,0.06790123456790124,166.90123456790127,0)" xlink:href="#aN"/><use transform="matrix(0.06790123456790124,0,0,0.06790123456790124,180.4814814814815,0)" xlink:href="#al"/><use transform="matrix(0.06790123456790124,0,0,0.06790123456790124,185.84567901234573,0)" xlink:href="#af"/><use transform="matrix(0.06790123456790124,0,0,0.06790123456790124,199.42592592592598,0)" xlink:href="#ay"/><use transform="matrix(0.06790123456790124,0,0,0.06790123456790124,211.6481481481482,0)" xlink:href="#aO"/><use transform="matrix(0.06790123456790124,0,0,0.06790123456790124,223.87037037037044,0)" xlink:href="#aP"/><use transform="matrix(0.06790123456790124,0,0,0.06790123456790124,231.9506172839507,0)" xlink:href="#at"/><use transform="matrix(0.06790123456790124,0,0,0.06790123456790124,245.53086419753095,0)" xlink:href="#aj"/><use transform="matrix(0.06790123456790124,0,0,0.06790123456790124,259.1111111111112,0)" xlink:href="#aQ"/><use transform="matrix(0.06790123456790124,0,0,0.06790123456790124,272.69135802469145,0)" xlink:href="#aF"/><use transform="matrix(0.06790123456790124,0,0,0.06790123456790124,278.05555555555566,0)" xlink:href="#aj"/><use transform="matrix(0.06790123456790124,0,0,0.06790123456790124,291.6358024691359,0)" xlink:href="#at"/><use transform="matrix(0.06790123456790124,0,0,0.06790123456790124,305.21604938271616,0)" xlink:href="#aM"/><use transform="matrix(0.06790123456790124,0,0,0.06790123456790124,312.0061728395063,0)" xlink:href="#aR"/><use transform="matrix(0.06790123456790124,0,0,0.06790123456790124,317.3703703703705,0)" xlink:href="#aF"/><use transform="matrix(0.06790123456790124,0,0,0.06790123456790124,322.7345679012347,0)" xlink:href="#ak"/><use transform="matrix(0.06790123456790124,0,0,0.06790123456790124,329.5246913580248,0)" xlink:href="#af"/><use transform="matrix(0.06790123456790124,0,0,0.06790123456790124,343.1049382716051,0)" xlink:href="#aM"/><use transform="matrix(0.06790123456790124,0,0,0.06790123456790124,349.89506172839515,0)" xlink:href="#ah"/><use transform="matrix(0.06790123456790124,0,0,0.06790123456790124,367.48148148148164,0)" xlink:href="#ak"/><use transform="matrix(0.06790123456790124,0,0,0.06790123456790124,374.27160493827176,0)" xlink:href="#an"/><use transform="matrix(0.06790123456790124,0,0,0.06790123456790124,381.0617283950619,0)" xlink:href="#aL"/><use transform="matrix(0.06790123456790124,0,0,0.06790123456790124,387.851851851852,0)" xlink:href="#ai"/><use transform="matrix(0.06790123456790124,0,0,0.06790123456790124,401.4320987654323,0)" xlink:href="#aw"/><use transform="matrix(0.06790123456790124,0,0,0.06790123456790124,415.0123456790125,0)" xlink:href="#aF"/><use transform="matrix(0.06790123456790124,0,0,0.06790123456790124,420.37654320987673,0)" xlink:href="#aL"/><use transform="matrix(0.06790123456790124,0,0,0.06790123456790124,427.16666666666686,0)" xlink:href="#aG"/><use transform="matrix(0.06790123456790124,0,0,0.06790123456790124,439.3888888888891,0)" xlink:href="#aS"/><use transform="matrix(0.06790123456790124,0,0,0.06790123456790124,452.96913580246934,0)" xlink:href="#aL"/><use transform="matrix(0.06790123456790124,0,0,0.06790123456790124,459.75925925925947,0)" xlink:href="#aN"/><use transform="matrix(0.06790123456790124,0,0,0.06790123456790124,473.3395061728397,0)" xlink:href="#ax"/><use transform="matrix(0.06790123456790124,0,0,0.06790123456790124,486.91975308642,0)" xlink:href="#aj"/><use transform="matrix(0.06790123456790124,0,0,0.06790123456790124,500.50000000000017,0)" xlink:href="#am"/><use transform="matrix(0.06790123456790124,0,0,0.06790123456790124,514.0802469135805,0)" xlink:href="#al"/><use transform="matrix(0.06790123456790124,0,0,0.06790123456790124,519.4444444444447,0)" xlink:href="#at"/><use transform="matrix(0.06790123456790124,0,0,0.06790123456790124,533.0246913580249,0)" xlink:href="#ao"/><path fill="#8080ff" d="M-1.22 1.7h547.7v1.78H-1.23z"/></g><g id="w"><use transform="matrix(0.06790123456790124,0,0,0.06790123456790124,0,0)" xlink:href="#ah"/><use transform="matrix(0.06790123456790124,0,0,0.06790123456790124,17.58641975308642,0)" xlink:href="#aF"/><use transform="matrix(0.06790123456790124,0,0,0.06790123456790124,22.95061728395062,0)" xlink:href="#ak"/><use transform="matrix(0.06790123456790124,0,0,0.06790123456790124,29.740740740740744,0)" xlink:href="#au"/></g><path d="M153-248C145-148 188 4 80 4 36 3 13-21 6-62l32-5c4 25 16 42 43 43 27 0 39-20 39-49v-147H72v-28h81" id="aT"/><g id="x"><use transform="matrix(0.06790123456790124,0,0,0.06790123456790124,0,0)" xlink:href="#aT"/><use transform="matrix(0.06790123456790124,0,0,0.06790123456790124,12.222222222222223,0)" xlink:href="#aF"/><use transform="matrix(0.06790123456790124,0,0,0.06790123456790124,17.58641975308642,0)" xlink:href="#ak"/><use transform="matrix(0.06790123456790124,0,0,0.06790123456790124,24.376543209876544,0)" xlink:href="#af"/></g><path d="M127-220V0H93v-220H8v-28h204v28h-85" id="aU"/><g id="y"><use transform="matrix(0.06790123456790124,0,0,0.06790123456790124,0,0)" xlink:href="#aU"/><use transform="matrix(0.06790123456790124,0,0,0.06790123456790124,13.987654320987655,0)" xlink:href="#aF"/><use transform="matrix(0.06790123456790124,0,0,0.06790123456790124,19.351851851851855,0)" xlink:href="#aw"/></g><path d="M30 0v-248h33v221h125V0H30" id="aV"/><g id="z"><use transform="matrix(0.06790123456790124,0,0,0.06790123456790124,0,0)" xlink:href="#aV"/><use transform="matrix(0.06790123456790124,0,0,0.06790123456790124,13.580246913580249,0)" xlink:href="#ai"/><use transform="matrix(0.06790123456790124,0,0,0.06790123456790124,27.160493827160497,0)" xlink:href="#aj"/><use transform="matrix(0.06790123456790124,0,0,0.06790123456790124,40.74074074074075,0)" xlink:href="#am"/></g><g id="A"><use transform="matrix(0.06790123456790124,0,0,0.06790123456790124,0,0)" xlink:href="#an"/><use transform="matrix(0.06790123456790124,0,0,0.06790123456790124,6.790123456790124,0)" xlink:href="#ai"/><use transform="matrix(0.06790123456790124,0,0,0.06790123456790124,20.370370370370374,0)" xlink:href="#ao"/><use transform="matrix(0.06790123456790124,0,0,0.06790123456790124,32.592592592592595,0)" xlink:href="#ak"/><use transform="matrix(0.06790123456790124,0,0,0.06790123456790124,39.38271604938272,0)" xlink:href="#aK"/></g><path d="M137-103V0h-34v-103L8-248h37l75 118 75-118h37" id="aW"/><path d="M185-189c-5-48-123-54-124 2 14 75 158 14 163 119 3 78-121 87-175 55-17-10-28-26-33-46l33-7c5 56 141 63 141-1 0-78-155-14-162-118-5-82 145-84 179-34 5 7 8 16 11 25" id="aX"/><g id="B"><use transform="matrix(0.06790123456790124,0,0,0.06790123456790124,0,0)" xlink:href="#aW"/><use transform="matrix(0.06790123456790124,0,0,0.06790123456790124,16.296296296296298,0)" xlink:href="#aD"/><use transform="matrix(0.06790123456790124,0,0,0.06790123456790124,32.592592592592595,0)" xlink:href="#aX"/></g><g id="C"><use transform="matrix(0.06790123456790124,0,0,0.06790123456790124,0,0)" xlink:href="#aC"/><use transform="matrix(0.06790123456790124,0,0,0.06790123456790124,20.302469135802472,0)" xlink:href="#aD"/><use transform="matrix(0.06790123456790124,0,0,0.06790123456790124,36.59876543209877,0)" xlink:href="#aE"/></g><g id="D"><use transform="matrix(0.06790123456790124,0,0,0.06790123456790124,0,0)" xlink:href="#aw"/><use transform="matrix(0.06790123456790124,0,0,0.06790123456790124,13.580246913580249,0)" xlink:href="#av"/><use transform="matrix(0.06790123456790124,0,0,0.06790123456790124,21.660493827160497,0)" xlink:href="#af"/><use transform="matrix(0.06790123456790124,0,0,0.06790123456790124,35.24074074074075,0)" xlink:href="#ak"/><use transform="matrix(0.06790123456790124,0,0,0.06790123456790124,42.03086419753088,0)" xlink:href="#at"/><use transform="matrix(0.06790123456790124,0,0,0.06790123456790124,55.61111111111112,0)" xlink:href="#ay"/><use transform="matrix(0.06790123456790124,0,0,0.06790123456790124,67.83333333333334,0)" xlink:href="#ak"/><use transform="matrix(0.06790123456790124,0,0,0.06790123456790124,74.62345679012347,0)" xlink:href="#aF"/><use transform="matrix(0.06790123456790124,0,0,0.06790123456790124,79.98765432098767,0)" xlink:href="#af"/><use transform="matrix(0.06790123456790124,0,0,0.06790123456790124,93.56790123456793,0)" xlink:href="#aj"/><use transform="matrix(0.06790123456790124,0,0,0.06790123456790124,107.14814814814818,0)" xlink:href="#aK"/></g><path d="M233-177c-1 41-23 64-60 70L243 0h-38l-65-103H63V0H30v-248c88 3 205-21 203 71zM63-129c60-2 137 13 137-47 0-61-80-42-137-45v92" id="aY"/><g id="E"><use transform="matrix(0.06790123456790124,0,0,0.06790123456790124,0,0)" xlink:href="#aY"/><use transform="matrix(0.06790123456790124,0,0,0.06790123456790124,17.58641975308642,0)" xlink:href="#at"/><use transform="matrix(0.06790123456790124,0,0,0.06790123456790124,31.16666666666667,0)" xlink:href="#aG"/><use transform="matrix(0.06790123456790124,0,0,0.06790123456790124,43.38888888888889,0)" xlink:href="#at"/><use transform="matrix(0.06790123456790124,0,0,0.06790123456790124,56.96913580246914,0)" xlink:href="#av"/><use transform="matrix(0.06790123456790124,0,0,0.06790123456790124,65.0493827160494,0)" xlink:href="#ak"/></g><g id="F"><use transform="matrix(0.06790123456790124,0,0,0.06790123456790124,0,0)" xlink:href="#aC"/><use transform="matrix(0.06790123456790124,0,0,0.06790123456790124,20.302469135802472,0)" xlink:href="#ax"/><use transform="matrix(0.06790123456790124,0,0,0.06790123456790124,33.88271604938272,0)" xlink:href="#al"/><use transform="matrix(0.06790123456790124,0,0,0.06790123456790124,39.24691358024692,0)" xlink:href="#ak"/><use transform="matrix(0.06790123456790124,0,0,0.06790123456790124,46.037037037037045,0)" xlink:href="#aF"/><use transform="matrix(0.06790123456790124,0,0,0.06790123456790124,51.40123456790124,0)" xlink:href="#aw"/><use transform="matrix(0.06790123456790124,0,0,0.06790123456790124,64.9814814814815,0)" xlink:href="#al"/><use transform="matrix(0.06790123456790124,0,0,0.06790123456790124,70.3456790123457,0)" xlink:href="#at"/></g><g id="G"><use transform="matrix(0.06790123456790124,0,0,0.06790123456790124,0,0)" xlink:href="#ak"/><use transform="matrix(0.06790123456790124,0,0,0.06790123456790124,6.790123456790124,0)" xlink:href="#av"/><use transform="matrix(0.06790123456790124,0,0,0.06790123456790124,14.870370370370374,0)" xlink:href="#ai"/><use transform="matrix(0.06790123456790124,0,0,0.06790123456790124,28.45061728395062,0)" xlink:href="#aj"/><use transform="matrix(0.06790123456790124,0,0,0.06790123456790124,42.03086419753087,0)" xlink:href="#ao"/><use transform="matrix(0.06790123456790124,0,0,0.06790123456790124,54.25308641975309,0)" xlink:href="#ai"/><use transform="matrix(0.06790123456790124,0,0,0.06790123456790124,67.83333333333334,0)" xlink:href="#ay"/><use transform="matrix(0.06790123456790124,0,0,0.06790123456790124,80.05555555555557,0)" xlink:href="#ak"/><use transform="matrix(0.06790123456790124,0,0,0.06790123456790124,86.8456790123457,0)" xlink:href="#aF"/><use transform="matrix(0.06790123456790124,0,0,0.06790123456790124,92.2098765432099,0)" xlink:href="#af"/><use transform="matrix(0.06790123456790124,0,0,0.06790123456790124,105.79012345679016,0)" xlink:href="#aj"/><use transform="matrix(0.06790123456790124,0,0,0.06790123456790124,119.37037037037041,0)" xlink:href="#ao"/><use transform="matrix(0.06790123456790124,0,0,0.06790123456790124,131.59259259259264,0)" xlink:href="#aK"/></g><g id="H"><use transform="matrix(0.06790123456790124,0,0,0.06790123456790124,0,0)" xlink:href="#aW"/><use transform="matrix(0.06790123456790124,0,0,0.06790123456790124,16.296296296296298,0)" xlink:href="#aD"/><use transform="matrix(0.06790123456790124,0,0,0.06790123456790124,32.592592592592595,0)" xlink:href="#aX"/></g><g id="I"><use transform="matrix(0.06172839506172839,0,0,0.06172839506172839,0,0)" xlink:href="#au"/><use transform="matrix(0.06172839506172839,0,0,0.06172839506172839,12.345679012345679,0)" xlink:href="#ak"/><use transform="matrix(0.06172839506172839,0,0,0.06172839506172839,18.51851851851852,0)" xlink:href="#ak"/><use transform="matrix(0.06172839506172839,0,0,0.06172839506172839,24.691358024691358,0)" xlink:href="#aw"/><use transform="matrix(0.06172839506172839,0,0,0.06172839506172839,37.03703703703704,0)" xlink:href="#ao"/><use transform="matrix(0.06172839506172839,0,0,0.06172839506172839,48.14814814814815,0)" xlink:href="#aK"/><use transform="matrix(0.06172839506172839,0,0,0.06172839506172839,54.320987654320994,0)" xlink:href="#aL"/><use transform="matrix(0.06172839506172839,0,0,0.06172839506172839,60.49382716049384,0)" xlink:href="#aL"/><use transform="matrix(0.06172839506172839,0,0,0.06172839506172839,66.66666666666667,0)" xlink:href="#aH"/><use transform="matrix(0.06172839506172839,0,0,0.06172839506172839,85.12345679012346,0)" xlink:href="#ai"/><use transform="matrix(0.06172839506172839,0,0,0.06172839506172839,97.46913580246914,0)" xlink:href="#aF"/><use transform="matrix(0.06172839506172839,0,0,0.06172839506172839,102.34567901234568,0)" xlink:href="#aj"/><use transform="matrix(0.06172839506172839,0,0,0.06172839506172839,114.69135802469137,0)" xlink:href="#aj"/><use transform="matrix(0.06172839506172839,0,0,0.06172839506172839,127.03703703703705,0)" xlink:href="#at"/><use transform="matrix(0.06172839506172839,0,0,0.06172839506172839,139.38271604938274,0)" xlink:href="#ak"/><use transform="matrix(0.06172839506172839,0,0,0.06172839506172839,145.55555555555557,0)" xlink:href="#aM"/><use transform="matrix(0.06172839506172839,0,0,0.06172839506172839,151.7283950617284,0)" xlink:href="#aN"/><use transform="matrix(0.06172839506172839,0,0,0.06172839506172839,164.07407407407408,0)" xlink:href="#al"/><use transform="matrix(0.06172839506172839,0,0,0.06172839506172839,168.9506172839506,0)" xlink:href="#af"/><use transform="matrix(0.06172839506172839,0,0,0.06172839506172839,181.29629629629628,0)" xlink:href="#ay"/><use transform="matrix(0.06172839506172839,0,0,0.06172839506172839,192.4074074074074,0)" xlink:href="#aO"/><use transform="matrix(0.06172839506172839,0,0,0.06172839506172839,203.5185185185185,0)" xlink:href="#aP"/><use transform="matrix(0.06172839506172839,0,0,0.06172839506172839,210.86419753086417,0)" xlink:href="#at"/><use transform="matrix(0.06172839506172839,0,0,0.06172839506172839,223.20987654320984,0)" xlink:href="#aj"/><use transform="matrix(0.06172839506172839,0,0,0.06172839506172839,235.55555555555551,0)" xlink:href="#aQ"/><use transform="matrix(0.06172839506172839,0,0,0.06172839506172839,247.90123456790118,0)" xlink:href="#aF"/><use transform="matrix(0.06172839506172839,0,0,0.06172839506172839,252.77777777777771,0)" xlink:href="#aj"/><use transform="matrix(0.06172839506172839,0,0,0.06172839506172839,265.1234567901234,0)" xlink:href="#at"/><use transform="matrix(0.06172839506172839,0,0,0.06172839506172839,277.46913580246905,0)" xlink:href="#aM"/><use transform="matrix(0.06172839506172839,0,0,0.06172839506172839,283.6419753086419,0)" xlink:href="#aR"/><use transform="matrix(0.06172839506172839,0,0,0.06172839506172839,288.5185185185185,0)" xlink:href="#aF"/><use transform="matrix(0.06172839506172839,0,0,0.06172839506172839,293.39506172839504,0)" xlink:href="#ak"/><use transform="matrix(0.06172839506172839,0,0,0.06172839506172839,299.5679012345679,0)" xlink:href="#af"/><use transform="matrix(0.06172839506172839,0,0,0.06172839506172839,311.91358024691357,0)" xlink:href="#aM"/><use transform="matrix(0.06172839506172839,0,0,0.06172839506172839,318.08641975308643,0)" xlink:href="#ah"/><use transform="matrix(0.06172839506172839,0,0,0.06172839506172839,334.0740740740741,0)" xlink:href="#ak"/><use transform="matrix(0.06172839506172839,0,0,0.06172839506172839,340.24691358024694,0)" xlink:href="#an"/><use transform="matrix(0.06172839506172839,0,0,0.06172839506172839,346.4197530864198,0)" xlink:href="#aL"/><use transform="matrix(0.06172839506172839,0,0,0.06172839506172839,352.59259259259267,0)" xlink:href="#ai"/><use transform="matrix(0.06172839506172839,0,0,0.06172839506172839,364.93827160493834,0)" xlink:href="#aw"/><use transform="matrix(0.06172839506172839,0,0,0.06172839506172839,377.283950617284,0)" xlink:href="#aF"/><use transform="matrix(0.06172839506172839,0,0,0.06172839506172839,382.16049382716056,0)" xlink:href="#aL"/><use transform="matrix(0.06172839506172839,0,0,0.06172839506172839,388.3333333333334,0)" xlink:href="#aG"/><use transform="matrix(0.06172839506172839,0,0,0.06172839506172839,399.4444444444445,0)" xlink:href="#aS"/><use transform="matrix(0.06172839506172839,0,0,0.06172839506172839,411.7901234567902,0)" xlink:href="#aL"/><use transform="matrix(0.06172839506172839,0,0,0.06172839506172839,417.96296296296305,0)" xlink:href="#ak"/><use transform="matrix(0.06172839506172839,0,0,0.06172839506172839,424.1358024691359,0)" xlink:href="#av"/><use transform="matrix(0.06172839506172839,0,0,0.06172839506172839,431.4814814814816,0)" xlink:href="#ai"/><use transform="matrix(0.06172839506172839,0,0,0.06172839506172839,443.82716049382725,0)" xlink:href="#aj"/><use transform="matrix(0.06172839506172839,0,0,0.06172839506172839,456.1728395061729,0)" xlink:href="#ao"/><use transform="matrix(0.06172839506172839,0,0,0.06172839506172839,467.283950617284,0)" xlink:href="#ai"/><use transform="matrix(0.06172839506172839,0,0,0.06172839506172839,479.6296296296297,0)" xlink:href="#ay"/><use transform="matrix(0.06172839506172839,0,0,0.06172839506172839,490.74074074074076,0)" xlink:href="#ak"/><use transform="matrix(0.06172839506172839,0,0,0.06172839506172839,496.9135802469136,0)" xlink:href="#aF"/><use transform="matrix(0.06172839506172839,0,0,0.06172839506172839,501.7901234567902,0)" xlink:href="#af"/><use transform="matrix(0.06172839506172839,0,0,0.06172839506172839,514.1358024691359,0)" xlink:href="#aj"/><use transform="matrix(0.06172839506172839,0,0,0.06172839506172839,526.4814814814816,0)" xlink:href="#ao"/><path fill="#8080ff" d="M-1.1 1.54h539.8v1.63H-1.1z"/></g><g id="J"><use transform="matrix(0.06172839506172839,0,0,0.06172839506172839,0,0)" xlink:href="#ah"/><use transform="matrix(0.06172839506172839,0,0,0.06172839506172839,15.987654320987653,0)" xlink:href="#aF"/><use transform="matrix(0.06172839506172839,0,0,0.06172839506172839,20.864197530864196,0)" xlink:href="#ak"/><use transform="matrix(0.06172839506172839,0,0,0.06172839506172839,27.037037037037035,0)" xlink:href="#au"/></g><g id="K"><use transform="matrix(0.06172839506172839,0,0,0.06172839506172839,0,0)" xlink:href="#aw"/><use transform="matrix(0.06172839506172839,0,0,0.06172839506172839,12.345679012345679,0)" xlink:href="#av"/><use transform="matrix(0.06172839506172839,0,0,0.06172839506172839,19.691358024691358,0)" xlink:href="#aF"/><use transform="matrix(0.06172839506172839,0,0,0.06172839506172839,24.5679012345679,0)" xlink:href="#af"/><use transform="matrix(0.06172839506172839,0,0,0.06172839506172839,36.913580246913575,0)" xlink:href="#av"/><use transform="matrix(0.06172839506172839,0,0,0.06172839506172839,44.25925925925925,0)" xlink:href="#aF"/><use transform="matrix(0.06172839506172839,0,0,0.06172839506172839,49.1358024691358,0)" xlink:href="#ak"/><use transform="matrix(0.06172839506172839,0,0,0.06172839506172839,55.30864197530864,0)" xlink:href="#aJ"/></g><g id="L"><use transform="matrix(0.06172839506172839,0,0,0.06172839506172839,0,0)" xlink:href="#an"/><use transform="matrix(0.06172839506172839,0,0,0.06172839506172839,6.172839506172839,0)" xlink:href="#at"/><use transform="matrix(0.06172839506172839,0,0,0.06172839506172839,18.51851851851852,0)" xlink:href="#at"/></g><g id="M"><use transform="matrix(0.06172839506172839,0,0,0.06172839506172839,0,0)" xlink:href="#ai"/><use transform="matrix(0.06172839506172839,0,0,0.06172839506172839,12.345679012345679,0)" xlink:href="#aj"/><use transform="matrix(0.06172839506172839,0,0,0.06172839506172839,24.691358024691358,0)" xlink:href="#am"/></g><g id="N"><use transform="matrix(0.06172839506172839,0,0,0.06172839506172839,0,0)" xlink:href="#aR"/><use transform="matrix(0.06172839506172839,0,0,0.06172839506172839,4.876543209876543,0)" xlink:href="#aF"/><use transform="matrix(0.06172839506172839,0,0,0.06172839506172839,9.753086419753085,0)" xlink:href="#ak"/><use transform="matrix(0.06172839506172839,0,0,0.06172839506172839,15.925925925925926,0)" xlink:href="#af"/></g><g id="O"><use transform="matrix(0.06172839506172839,0,0,0.06172839506172839,0,0)" xlink:href="#ak"/><use transform="matrix(0.06172839506172839,0,0,0.06172839506172839,6.172839506172839,0)" xlink:href="#aF"/><use transform="matrix(0.06172839506172839,0,0,0.06172839506172839,11.049382716049383,0)" xlink:href="#aw"/></g><path d="M87 75C49 33 22-17 22-94c0-76 28-126 65-167h31c-38 41-64 92-64 168S80 34 118 75H87" id="aZ"/><g id="P"><use transform="matrix(0.06172839506172839,0,0,0.06172839506172839,0,0)" xlink:href="#aZ"/><use transform="matrix(0.06172839506172839,0,0,0.06172839506172839,7.345679012345679,0)" xlink:href="#ah"/><use transform="matrix(0.06172839506172839,0,0,0.06172839506172839,23.333333333333332,0)" xlink:href="#au"/><use transform="matrix(0.06172839506172839,0,0,0.06172839506172839,35.67901234567901,0)" xlink:href="#ai"/><use transform="matrix(0.06172839506172839,0,0,0.06172839506172839,48.02469135802469,0)" xlink:href="#ak"/></g><g id="Q"><use transform="matrix(0.06172839506172839,0,0,0.06172839506172839,0,0)" xlink:href="#am"/><use transform="matrix(0.06172839506172839,0,0,0.06172839506172839,12.345679012345679,0)" xlink:href="#af"/><use transform="matrix(0.06172839506172839,0,0,0.06172839506172839,24.691358024691358,0)" xlink:href="#at"/><use transform="matrix(0.06172839506172839,0,0,0.06172839506172839,37.03703703703704,0)" xlink:href="#ao"/></g><g id="R"><use transform="matrix(0.06172839506172839,0,0,0.06172839506172839,0,0)" xlink:href="#ak"/><use transform="matrix(0.06172839506172839,0,0,0.06172839506172839,6.172839506172839,0)" xlink:href="#af"/><use transform="matrix(0.06172839506172839,0,0,0.06172839506172839,18.51851851851852,0)" xlink:href="#aw"/></g><g id="S"><use transform="matrix(0.06172839506172839,0,0,0.06172839506172839,0,0)" xlink:href="#am"/><use transform="matrix(0.06172839506172839,0,0,0.06172839506172839,12.345679012345679,0)" xlink:href="#af"/></g><path d="M33-261c38 41 65 92 65 168S71 34 33 75H2C39 34 66-17 66-93S39-220 2-261h31" id="ba"/><g id="T"><use transform="matrix(0.06172839506172839,0,0,0.06172839506172839,0,0)" xlink:href="#au"/><use transform="matrix(0.06172839506172839,0,0,0.06172839506172839,12.345679012345679,0)" xlink:href="#at"/><use transform="matrix(0.06172839506172839,0,0,0.06172839506172839,24.691358024691358,0)" xlink:href="#av"/><use transform="matrix(0.06172839506172839,0,0,0.06172839506172839,32.03703703703704,0)" xlink:href="#at"/><use transform="matrix(0.06172839506172839,0,0,0.06172839506172839,44.382716049382715,0)" xlink:href="#ap"/><use transform="matrix(0.06172839506172839,0,0,0.06172839506172839,56.72839506172839,0)" xlink:href="#ba"/></g><g id="U"><use transform="matrix(0.06172839506172839,0,0,0.06172839506172839,0,0)" xlink:href="#aV"/><use transform="matrix(0.06172839506172839,0,0,0.06172839506172839,12.345679012345679,0)" xlink:href="#ai"/><use transform="matrix(0.06172839506172839,0,0,0.06172839506172839,24.691358024691358,0)" xlink:href="#aj"/><use transform="matrix(0.06172839506172839,0,0,0.06172839506172839,37.03703703703704,0)" xlink:href="#am"/></g><g id="V"><use transform="matrix(0.06172839506172839,0,0,0.06172839506172839,0,0)" xlink:href="#an"/><use transform="matrix(0.06172839506172839,0,0,0.06172839506172839,6.172839506172839,0)" xlink:href="#ai"/><use transform="matrix(0.06172839506172839,0,0,0.06172839506172839,18.51851851851852,0)" xlink:href="#ao"/><use transform="matrix(0.06172839506172839,0,0,0.06172839506172839,29.62962962962963,0)" xlink:href="#ak"/><use transform="matrix(0.06172839506172839,0,0,0.06172839506172839,35.80246913580247,0)" xlink:href="#aK"/></g><g id="W"><use transform="matrix(0.06172839506172839,0,0,0.06172839506172839,0,0)" xlink:href="#aW"/><use transform="matrix(0.06172839506172839,0,0,0.06172839506172839,14.814814814814813,0)" xlink:href="#aD"/><use transform="matrix(0.06172839506172839,0,0,0.06172839506172839,29.629629629629626,0)" xlink:href="#aX"/></g><g id="X"><use transform="matrix(0.06172839506172839,0,0,0.06172839506172839,0,0)" xlink:href="#aC"/><use transform="matrix(0.06172839506172839,0,0,0.06172839506172839,18.456790123456788,0)" xlink:href="#aD"/><use transform="matrix(0.06172839506172839,0,0,0.06172839506172839,33.2716049382716,0)" xlink:href="#aE"/></g><g id="Y"><use transform="matrix(0.06172839506172839,0,0,0.06172839506172839,0,0)" xlink:href="#aw"/><use transform="matrix(0.06172839506172839,0,0,0.06172839506172839,12.345679012345679,0)" xlink:href="#av"/><use transform="matrix(0.06172839506172839,0,0,0.06172839506172839,19.691358024691358,0)" xlink:href="#af"/><use transform="matrix(0.06172839506172839,0,0,0.06172839506172839,32.03703703703704,0)" xlink:href="#ak"/><use transform="matrix(0.06172839506172839,0,0,0.06172839506172839,38.20987654320988,0)" xlink:href="#at"/><use transform="matrix(0.06172839506172839,0,0,0.06172839506172839,50.55555555555556,0)" xlink:href="#ay"/><use transform="matrix(0.06172839506172839,0,0,0.06172839506172839,61.66666666666667,0)" xlink:href="#ak"/><use transform="matrix(0.06172839506172839,0,0,0.06172839506172839,67.8395061728395,0)" xlink:href="#aF"/><use transform="matrix(0.06172839506172839,0,0,0.06172839506172839,72.71604938271605,0)" xlink:href="#af"/><use transform="matrix(0.06172839506172839,0,0,0.06172839506172839,85.06172839506173,0)" xlink:href="#aj"/><use transform="matrix(0.06172839506172839,0,0,0.06172839506172839,97.40740740740742,0)" xlink:href="#aK"/></g><g id="Z"><use transform="matrix(0.06172839506172839,0,0,0.06172839506172839,0,0)" xlink:href="#aW"/><use transform="matrix(0.06172839506172839,0,0,0.06172839506172839,14.814814814814813,0)" xlink:href="#aD"/><use transform="matrix(0.06172839506172839,0,0,0.06172839506172839,29.629629629629626,0)" xlink:href="#aX"/></g><g id="aa"><use transform="matrix(0.06172839506172839,0,0,0.06172839506172839,0,0)" xlink:href="#aY"/><use transform="matrix(0.06172839506172839,0,0,0.06172839506172839,15.987654320987653,0)" xlink:href="#at"/><use transform="matrix(0.06172839506172839,0,0,0.06172839506172839,28.333333333333332,0)" xlink:href="#aG"/><use transform="matrix(0.06172839506172839,0,0,0.06172839506172839,39.44444444444444,0)" xlink:href="#at"/><use transform="matrix(0.06172839506172839,0,0,0.06172839506172839,51.79012345679012,0)" xlink:href="#av"/><use transform="matrix(0.06172839506172839,0,0,0.06172839506172839,59.1358024691358,0)" xlink:href="#ak"/></g><path d="M190 0L58-211 59 0H30v-248h39L202-35l-2-213h31V0h-41" id="bb"/><path d="M140-251c81 0 123 46 123 126C263-46 219 4 140 4 59 4 17-45 17-125s42-126 123-126zm0 227c63 0 89-41 89-101s-29-99-89-99c-61 0-89 39-89 99S79-25 140-24" id="bc"/><g id="ab"><use transform="matrix(0.06172839506172839,0,0,0.06172839506172839,0,0)" xlink:href="#bb"/><use transform="matrix(0.06172839506172839,0,0,0.06172839506172839,15.987654320987653,0)" xlink:href="#bc"/></g><g id="ac"><use transform="matrix(0.06172839506172839,0,0,0.06172839506172839,0,0)" xlink:href="#aC"/><use transform="matrix(0.06172839506172839,0,0,0.06172839506172839,18.456790123456788,0)" xlink:href="#ax"/><use transform="matrix(0.06172839506172839,0,0,0.06172839506172839,30.80246913580247,0)" xlink:href="#al"/><use transform="matrix(0.06172839506172839,0,0,0.06172839506172839,35.67901234567901,0)" xlink:href="#ak"/><use transform="matrix(0.06172839506172839,0,0,0.06172839506172839,41.851851851851855,0)" xlink:href="#aF"/><use transform="matrix(0.06172839506172839,0,0,0.06172839506172839,46.7283950617284,0)" xlink:href="#aw"/><use transform="matrix(0.06172839506172839,0,0,0.06172839506172839,59.074074074074076,0)" xlink:href="#al"/><use transform="matrix(0.06172839506172839,0,0,0.06172839506172839,63.95061728395061,0)" xlink:href="#at"/></g><g id="ad"><use transform="matrix(0.06172839506172839,0,0,0.06172839506172839,0,0)" xlink:href="#ak"/><use transform="matrix(0.06172839506172839,0,0,0.06172839506172839,6.172839506172839,0)" xlink:href="#av"/><use transform="matrix(0.06172839506172839,0,0,0.06172839506172839,13.518518518518519,0)" xlink:href="#ai"/><use transform="matrix(0.06172839506172839,0,0,0.06172839506172839,25.864197530864196,0)" xlink:href="#aj"/><use transform="matrix(0.06172839506172839,0,0,0.06172839506172839,38.20987654320987,0)" xlink:href="#ao"/><use transform="matrix(0.06172839506172839,0,0,0.06172839506172839,49.32098765432099,0)" xlink:href="#ai"/><use transform="matrix(0.06172839506172839,0,0,0.06172839506172839,61.666666666666664,0)" xlink:href="#ay"/><use transform="matrix(0.06172839506172839,0,0,0.06172839506172839,72.77777777777777,0)" xlink:href="#ak"/><use transform="matrix(0.06172839506172839,0,0,0.06172839506172839,78.9506172839506,0)" xlink:href="#aF"/><use transform="matrix(0.06172839506172839,0,0,0.06172839506172839,83.82716049382715,0)" xlink:href="#af"/><use transform="matrix(0.06172839506172839,0,0,0.06172839506172839,96.17283950617283,0)" xlink:href="#aj"/><use transform="matrix(0.06172839506172839,0,0,0.06172839506172839,108.51851851851852,0)" xlink:href="#aK"/></g></defs></g></svg>